<svg xmlns="http://www.w3.org/2000/svg" xmlns:xlink="http://www.w3.org/1999/xlink" width="40" zoomAndPan="magnify" viewBox="0 0 30 30.000001" height="40" preserveAspectRatio="xMidYMid meet" version="1.0"><defs><clipPath id="1d17515497"><path d="M 1.898438 1.894531 L 28.027344 1.894531 L 28.027344 27.296875 L 1.898438 27.296875 Z M 1.898438 1.894531 " clip-rule="nonzero"/></clipPath></defs><g clip-path="url(#1d17515497)"><path fill="white" d="M 5.265625 1.894531 L 21.824219 1.894531 C 22.660156 1.894531 23.425781 2.207031 24.015625 2.71875 L 24.019531 2.722656 L 24.023438 2.722656 L 24.042969 2.742188 C 24.09375 2.789062 24.148438 2.839844 24.203125 2.894531 L 24.207031 2.898438 C 24.8125 3.511719 25.191406 4.359375 25.191406 5.292969 L 25.191406 10.28125 L 25.394531 10.28125 C 26.121094 10.28125 26.773438 10.578125 27.253906 11.058594 L 27.253906 11.0625 C 27.726562 11.542969 28.023438 12.207031 28.023438 12.933594 L 28.023438 20.425781 C 28.023438 21.152344 27.726562 21.816406 27.253906 22.296875 L 27.253906 22.300781 C 26.773438 22.78125 26.121094 23.078125 25.394531 23.078125 L 24.355469 23.078125 L 21.160156 27.042969 C 20.925781 27.335938 20.492188 27.382812 20.199219 27.140625 C 20.03125 27.007812 19.949219 26.808594 19.949219 26.605469 L 19.941406 26.605469 L 19.941406 23.078125 L 13.398438 23.078125 C 12.679688 23.078125 12.023438 22.78125 11.546875 22.300781 L 11.542969 22.296875 C 11.066406 21.816406 10.769531 21.152344 10.769531 20.425781 L 10.769531 19.03125 L 5.265625 19.03125 C 4.339844 19.03125 3.496094 18.652344 2.886719 18.03125 C 2.277344 17.417969 1.898438 16.566406 1.898438 15.636719 L 1.898438 5.292969 C 1.898438 4.359375 2.277344 3.511719 2.886719 2.894531 C 3.496094 2.273438 4.339844 1.894531 5.265625 1.894531 Z M 23.183594 15.453125 C 23.519531 15.453125 23.824219 15.589844 24.042969 15.808594 L 24.046875 15.816406 C 24.265625 16.035156 24.402344 16.34375 24.402344 16.679688 C 24.402344 17.015625 24.265625 17.324219 24.042969 17.550781 C 23.824219 17.769531 23.519531 17.90625 23.183594 17.90625 C 22.847656 17.90625 22.546875 17.769531 22.324219 17.550781 C 22.101562 17.324219 21.96875 17.015625 21.96875 16.679688 C 21.96875 16.34375 22.101562 16.035156 22.324219 15.808594 C 22.546875 15.589844 22.847656 15.453125 23.183594 15.453125 Z M 15.609375 15.453125 C 15.945312 15.453125 16.253906 15.589844 16.472656 15.808594 C 16.691406 16.035156 16.828125 16.34375 16.828125 16.679688 C 16.828125 17.015625 16.691406 17.324219 16.472656 17.550781 C 16.253906 17.769531 15.945312 17.90625 15.609375 17.90625 C 15.277344 17.90625 14.96875 17.769531 14.753906 17.550781 C 14.53125 17.324219 14.394531 17.019531 14.394531 16.679688 C 14.394531 16.339844 14.53125 16.035156 14.753906 15.808594 C 14.96875 15.589844 15.277344 15.453125 15.609375 15.453125 Z M 19.398438 15.453125 C 19.734375 15.453125 20.035156 15.589844 20.257812 15.808594 L 20.257812 15.816406 C 20.480469 16.035156 20.613281 16.34375 20.613281 16.679688 C 20.613281 17.015625 20.476562 17.324219 20.257812 17.550781 C 20.035156 17.769531 19.734375 17.90625 19.398438 17.90625 C 19.058594 17.90625 18.757812 17.769531 18.535156 17.550781 C 18.316406 17.324219 18.179688 17.019531 18.179688 16.679688 C 18.179688 16.339844 18.316406 16.035156 18.535156 15.808594 C 18.757812 15.589844 19.0625 15.453125 19.398438 15.453125 Z M 24.503906 11.667969 L 13.398438 11.667969 C 13.050781 11.667969 12.742188 11.808594 12.511719 12.035156 C 12.285156 12.269531 12.144531 12.582031 12.144531 12.933594 L 12.144531 20.425781 C 12.144531 20.777344 12.285156 21.089844 12.511719 21.324219 C 12.742188 21.550781 13.050781 21.695312 13.398438 21.695312 L 20.632812 21.695312 C 21.007812 21.695312 21.316406 22.003906 21.316406 22.386719 L 21.316406 24.660156 L 23.472656 21.992188 C 23.59375 21.8125 23.800781 21.695312 24.039062 21.695312 L 25.394531 21.695312 C 25.742188 21.695312 26.058594 21.550781 26.285156 21.324219 C 26.511719 21.089844 26.652344 20.777344 26.652344 20.425781 L 26.652344 12.933594 C 26.652344 12.582031 26.511719 12.269531 26.285156 12.035156 C 26.058594 11.808594 25.742188 11.667969 25.394531 11.667969 Z M 4.800781 3.332031 L 13.542969 9.617188 L 22.285156 3.332031 C 22.136719 3.296875 21.980469 3.277344 21.824219 3.277344 L 5.265625 3.277344 C 5.109375 3.277344 4.953125 3.296875 4.800781 3.332031 Z M 23.476562 4.171875 L 14.976562 10.28125 L 23.820312 10.28125 L 23.820312 5.292969 C 23.820312 4.878906 23.695312 4.492188 23.476562 4.171875 Z M 12.394531 10.484375 L 3.609375 4.171875 C 3.394531 4.492188 3.269531 4.878906 3.269531 5.292969 L 3.269531 15.636719 C 3.269531 16.1875 3.496094 16.6875 3.855469 17.054688 C 4.21875 17.417969 4.71875 17.648438 5.265625 17.648438 L 10.769531 17.648438 L 10.769531 12.933594 C 10.769531 12.207031 11.066406 11.542969 11.542969 11.0625 L 11.589844 11.015625 L 11.605469 11.003906 L 11.613281 10.992188 L 11.625 10.984375 L 11.648438 10.960938 L 11.664062 10.953125 L 11.664062 10.949219 L 11.707031 10.90625 L 11.710938 10.90625 L 11.734375 10.890625 L 11.734375 10.882812 L 11.746094 10.875 L 11.753906 10.867188 L 11.761719 10.867188 L 11.773438 10.859375 L 11.78125 10.847656 L 11.785156 10.84375 L 11.800781 10.835938 L 11.820312 10.816406 L 11.832031 10.808594 L 11.835938 10.808594 L 11.847656 10.796875 L 11.859375 10.789062 L 11.863281 10.785156 L 11.875 10.777344 L 11.882812 10.773438 L 11.886719 10.769531 L 11.902344 10.757812 L 11.90625 10.753906 L 11.929688 10.742188 L 11.941406 10.730469 L 11.957031 10.722656 L 11.960938 10.71875 L 11.96875 10.714844 L 11.980469 10.707031 L 11.988281 10.699219 L 11.996094 10.695312 L 12.007812 10.6875 L 12.011719 10.683594 L 12.023438 10.679688 L 12.039062 10.664062 L 12.0625 10.652344 L 12.066406 10.652344 L 12.074219 10.648438 L 12.09375 10.636719 L 12.097656 10.632812 L 12.121094 10.621094 L 12.125 10.621094 L 12.132812 10.609375 L 12.144531 10.605469 L 12.175781 10.589844 L 12.191406 10.578125 L 12.203125 10.574219 L 12.207031 10.570312 L 12.21875 10.566406 L 12.234375 10.558594 L 12.25 10.554688 L 12.261719 10.542969 L 12.265625 10.542969 L 12.273438 10.539062 L 12.292969 10.53125 L 12.304688 10.527344 L 12.320312 10.515625 L 12.324219 10.515625 L 12.335938 10.511719 L 12.351562 10.503906 L 12.363281 10.5 L 12.382812 10.488281 Z M 12.394531 10.484375 " fill-opacity="1" fill-rule="evenodd"/></g></svg>